<?xml version="1.0" encoding="UTF-8"?>
<svg width="22px" height="20px" viewBox="0 0 22 20" version="1.1" xmlns="http://www.w3.org/2000/svg" xmlns:xlink="http://www.w3.org/1999/xlink">
    <!-- Generator: Sketch 52.2 (67145) - http://www.bohemiancoding.com/sketch -->
    <title>Slice</title>
    <desc>Created with Sketch.</desc>
    <g id="Community-Mobile" stroke="none" stroke-width="1" fill="none" fill-rule="evenodd">
        <g id="chat" transform="translate(-2.000000, -3.000000)">
            <g id="ARTWORK" transform="translate(3.000000, 3.000000)">
                <path d="M13.6,10 L13.6,2.4 C13.6,2.2 13.4,2 13.2,2 L1.4,2 C1.2,1.9 1,2.1 1,2.4 L1,12.7 L2.7,10.9 C2.9,10.7 3.2,10.5 3.6,10.5 L13.2,10.5 C13.4,10.4 13.6,10.2 13.6,10 Z" id="Path"></path>
                <path d="M8.7,16.2 L16.8,16.2 C16.9,16.2 16.9,16.2 16.9,16.3 L19,18.6 C19.1,18.7 19.2,18.8 19.4,18.8 C19.5,18.8 19.5,18.8 19.6,18.8 C19.8,18.7 19.9,18.5 19.9,18.3 L19.9,8.4 C20,7.7 19.4,7 18.5,7 C18.5,7 18.5,7 18.5,7 L17.3,7 C17.3,7.6 17.7,8 18.3,8 L18.6,8 C18.8,8 19,8.2 19,8.4 L19,17 L17.7,15.6 C17.5,15.4 17.2,15.2 16.8,15.2 L8.7,15.2 C8.5,15.2 8.3,15 8.3,14.8 L8.3,11.4 L13.2,11.4 C14,11.4 14.6,10.8 14.6,10 L14.6,2.4 C14.6,1.6 14,1 13.2,1 L1.4,1 C0.6,0.9 0,1.6 0,2.4 L0,13.9 C0,14.1 0.1,14.3 0.3,14.4 C0.4,14.4 0.4,14.4 0.5,14.4 C0.6,14.4 0.8,14.3 0.9,14.2 L3.4,11.4 C3.4,11.4 3.4,11.4 3.4,11.4 C3.4,11.4 3.5,11.3 3.5,11.3 L7.2,11.3 L7.2,14.7 C7.2,15.6 7.9,16.2 8.7,16.2 Z M3.5,10.4 C3.2,10.4 2.8,10.5 2.6,10.8 L1,12.6 L1,2.4 C1,2.2 1.2,2 1.4,2 L13.1,2 C13.3,2 13.5,2.2 13.5,2.4 L13.5,10 C13.5,10.2 13.3,10.4 13.1,10.4 L3.5,10.4 Z" id="Shape" stroke="#00ACAD" stroke-width="0.5" fill="#00ACAD" fill-rule="nonzero"></path>
                <path d="M11.5,4.5 L3.1,4.5 C2.8,4.5 2.5,4.2 2.5,4 C2.5,3.7 2.7,3.5 3,3.5 L11.4,3.5 C11.8,3.4 12,3.7 12,4 C12,4.2 11.8,4.5 11.5,4.5 Z" id="Path" fill="#00ACAD"></path>
                <path d="M11.5,6.6 L3.1,6.6 C2.8,6.6 2.6,6.4 2.6,6.1 C2.6,5.8 2.8,5.6 3.1,5.6 L11.5,5.6 C11.8,5.6 12,5.8 12,6.1 C12,6.4 11.8,6.6 11.5,6.6 Z" id="Path" fill="#00ACAD"></path>
                <path d="M11.5,8.8 L3.1,8.8 C2.8,8.8 2.6,8.6 2.6,8.3 C2.6,8 2.8,7.8 3.1,7.8 L11.5,7.8 C11.8,7.8 12,8 12,8.3 C12,8.5 11.8,8.8 11.5,8.8 Z" id="Path" fill="#00ACAD"></path>
            </g>
        </g>
    </g>
</svg>