<?xml version="1.0" encoding="utf-8"?>
<!-- Generator: Adobe Illustrator 22.1.0, SVG Export Plug-In . SVG Version: 6.00 Build 0)  -->
<svg version="1.1" xmlns="http://www.w3.org/2000/svg" xmlns:xlink="http://www.w3.org/1999/xlink" x="0px" y="0px"
	 viewBox="0 0 24 24" style="enable-background:new 0 0 24 24;" xml:space="preserve">
<style type="text/css">
	.st0{display:none;}
	.st1{display:inline;}
	.st2{opacity:0.19;}
	.st3{fill:none;stroke:#1D1D1B;stroke-width:2.500000e-02;stroke-miterlimit:10;}
	.st4{opacity:0.5;fill:#1D1D1B;}
	.st5{opacity:0.63;}
	.st6{fill:#1D1D1B;}
	.st7{fill:none;}
	.st8{fill:#7C7C7D;stroke:#7C7C7D;stroke-width:0.5;stroke-miterlimit:10;}
	.st9{fill:#C3C4C8;}
</style>
<g id="GUIDES" class="st0">
	<g class="st1">
		<g class="st2">
			<g>
				<line class="st3" x1="0" y1="0" x2="24" y2="0"/>
				<line class="st3" x1="0" y1="1" x2="24" y2="1"/>
				<line class="st3" x1="0" y1="2" x2="24" y2="2"/>
				<line class="st3" x1="0" y1="3" x2="24" y2="3"/>
				<line class="st3" x1="0" y1="4" x2="24" y2="4"/>
				<line class="st3" x1="0" y1="5" x2="24" y2="5"/>
				<line class="st3" x1="0" y1="6" x2="24" y2="6"/>
				<line class="st3" x1="0" y1="7" x2="24" y2="7"/>
				<line class="st3" x1="0" y1="8" x2="24" y2="8"/>
				<line class="st3" x1="0" y1="9" x2="24" y2="9"/>
				<line class="st3" x1="0" y1="10" x2="24" y2="10"/>
				<line class="st3" x1="0" y1="11" x2="24" y2="11"/>
				<line class="st3" x1="0" y1="12" x2="24" y2="12"/>
				<line class="st3" x1="0" y1="13" x2="24" y2="13"/>
				<line class="st3" x1="0" y1="14" x2="24" y2="14"/>
				<line class="st3" x1="0" y1="15" x2="24" y2="15"/>
				<line class="st3" x1="0" y1="16" x2="24" y2="16"/>
				<line class="st3" x1="0" y1="17" x2="24" y2="17"/>
				<line class="st3" x1="0" y1="18" x2="24" y2="18"/>
				<line class="st3" x1="0" y1="19" x2="24" y2="19"/>
				<line class="st3" x1="0" y1="20" x2="24" y2="20"/>
				<line class="st3" x1="0" y1="21" x2="24" y2="21"/>
				<line class="st3" x1="0" y1="22" x2="24" y2="22"/>
				<line class="st3" x1="0" y1="23" x2="24" y2="23"/>
				<line class="st3" x1="0" y1="24" x2="24" y2="24"/>
			</g>
			<g>
				<line class="st3" x1="24" y1="0" x2="24" y2="24"/>
				<line class="st3" x1="23" y1="0" x2="23" y2="24"/>
				<line class="st3" x1="22" y1="0" x2="22" y2="24"/>
				<line class="st3" x1="21" y1="0" x2="21" y2="24"/>
				<line class="st3" x1="20" y1="0" x2="20" y2="24"/>
				<line class="st3" x1="19" y1="0" x2="19" y2="24"/>
				<line class="st3" x1="18" y1="0" x2="18" y2="24"/>
				<line class="st3" x1="17" y1="0" x2="17" y2="24"/>
				<line class="st3" x1="16" y1="0" x2="16" y2="24"/>
				<line class="st3" x1="15" y1="0" x2="15" y2="24"/>
				<line class="st3" x1="14" y1="0" x2="14" y2="24"/>
				<line class="st3" x1="13" y1="0" x2="13" y2="24"/>
				<line class="st3" x1="12" y1="0" x2="12" y2="24"/>
				<line class="st3" x1="11" y1="0" x2="11" y2="24"/>
				<line class="st3" x1="10" y1="0" x2="10" y2="24"/>
				<line class="st3" x1="9" y1="0" x2="9" y2="24"/>
				<line class="st3" x1="8" y1="0" x2="8" y2="24"/>
				<line class="st3" x1="7" y1="0" x2="7" y2="24"/>
				<line class="st3" x1="6" y1="0" x2="6" y2="24"/>
				<line class="st3" x1="5" y1="0" x2="5" y2="24"/>
				<line class="st3" x1="4" y1="0" x2="4" y2="24"/>
				<line class="st3" x1="3" y1="0" x2="3" y2="24"/>
				<line class="st3" x1="2" y1="0" x2="2" y2="24"/>
				<line class="st3" x1="1" y1="0" x2="1" y2="24"/>
				<line class="st3" x1="0" y1="0" x2="0" y2="24"/>
			</g>
		</g>
		<g>
			<g>
				<rect x="12" class="st4" width="0" height="24"/>
			</g>
			<g class="st5">
				<g>
					<rect x="0" y="12" class="st4" width="24" height="0"/>
				</g>
				<g>
					<path class="st6" d="M24,24H0V0h24V24z M0,24H24V0H0V24z"/>
				</g>
				<g>
					<path class="st4" d="M16,16H8V8h8V16z M8,16H16V8H8V16z"/>
				</g>
				<g>
					<path class="st4" d="M20,20H4V4H20V20z M4,20h16V4H4V20z"/>
				</g>
				<g>
					<path class="st4" d="M22,22H2V2h20V22z M2,22H22V2H2V22z"/>
				</g>
			</g>
		</g>
	</g>
</g>
<g id="ARTWORK">
	<path class="st7" d="M15.6,12V4.4c0-0.2-0.2-0.4-0.4-0.4H3.4C3.2,3.9,3,4.1,3,4.4v10.3l1.7-1.8c0.2-0.2,0.5-0.4,0.9-0.4h9.6
		C15.4,12.4,15.6,12.2,15.6,12z"/>
	<path class="st8" d="M10.7,18.2h8.1c0.1,0,0.1,0,0.1,0.1l2.1,2.3c0.1,0.1,0.2,0.2,0.4,0.2c0.1,0,0.1,0,0.2,0
		c0.2-0.1,0.3-0.3,0.3-0.5v-9.9C22,9.7,21.4,9,20.5,9v0h0c0,0,0,0,0,0l0,0h-1.2c0,0.6,0.4,1,1,1h0.3v0c0.2,0,0.4,0.2,0.4,0.4V19
		l-1.3-1.4c-0.2-0.2-0.5-0.4-0.9-0.4h-8.1c-0.2,0-0.4-0.2-0.4-0.4v-3.4h4.9c0.8,0,1.4-0.6,1.4-1.4V4.4c0-0.8-0.6-1.4-1.4-1.4H3.4
		C2.6,2.9,2,3.6,2,4.4v11.5c0,0.2,0.1,0.4,0.3,0.5c0.1,0,0.1,0,0.2,0c0.1,0,0.3-0.1,0.4-0.2l2.5-2.8c0,0,0,0,0,0
		c0,0,0.1-0.1,0.1-0.1h3.7v3.4C9.2,17.6,9.9,18.2,10.7,18.2z M5.5,12.4c-0.3,0-0.7,0.1-0.9,0.4L3,14.6V4.4c0-0.2,0.2-0.4,0.4-0.4
		h11.7c0.2,0,0.4,0.2,0.4,0.4V12c0,0.2-0.2,0.4-0.4,0.4H5.5z"/>
	<path class="st9" d="M13.5,6.5H5.1C4.8,6.5,4.5,6.2,4.5,6v0c0-0.3,0.2-0.5,0.5-0.5h8.4C13.8,5.4,14,5.7,14,6v0
		C14,6.2,13.8,6.5,13.5,6.5z"/>
	<path class="st9" d="M13.5,8.6H5.1c-0.3,0-0.5-0.2-0.5-0.5v0c0-0.3,0.2-0.5,0.5-0.5h8.4c0.3,0,0.5,0.2,0.5,0.5v0
		C14,8.4,13.8,8.6,13.5,8.6z"/>
	<path class="st9" d="M13.5,10.8H5.1c-0.3,0-0.5-0.2-0.5-0.5v0c0-0.3,0.2-0.5,0.5-0.5h8.4c0.3,0,0.5,0.2,0.5,0.5v0
		C14,10.5,13.8,10.8,13.5,10.8z"/>
</g>
</svg>
